<svg xmlns="http://www.w3.org/2000/svg" width="459" height="459" viewBox="0 0 459 459"><path d="M162.562 181.688c0-68.85 55.462-124.312 124.312-124.312h9.562C296.438 24.862 271.576 0 239.062 0h-114.75C91.8 0 66.938 24.862 66.938 57.375V459l114.75-114.75L296.438 459V306h-9.562c-68.85 0-124.314-55.463-124.314-124.312z"/><path d="M286.875 76.5c-57.375 0-105.188 47.812-105.188 105.188S229.5 286.875 286.875 286.875s105.188-47.812 105.188-105.188S344.25 76.5 286.875 76.5zm66.937 114.75h-57.375v57.375h-19.125V191.25h-57.375v-19.125h57.375V114.75h19.125v57.375h57.375v19.125z"/></svg>
