<svg xmlns="http://www.w3.org/2000/svg" width="588.039" height="588.039" viewBox="0 0 588.039 588.039"><path d="M78.324 323.354c-2.625 9.315 1.432 14.333 1.432 14.333l13.617 23.17c-5.973 33.202 9.315 57.57 18.63 69.75 9.313 12.186 70.71 92.204 78.353 101.286 7.644 9.076 38.458 40.852 71.665 16.72 33.21-24.125 22.22-65.214 22.22-65.214l-14.21-52.92c76.8-9.68 51.72-75.85 51.72-75.85l32.16-32.16s66.17 25.08 75.85-51.72l52.92 14.21s41.09 10.99 65.214-22.22c24.125-33.2-7.644-64.02-16.72-71.667s-89.106-69.03-101.29-78.35c-12.183-9.31-36.55-24.6-69.75-18.633l-23.17-13.617s-5.02-4.067-14.33-1.437c0 0-2.747-3.46-9.675.6-6.93 4.066-22.45 14.097-32.37 34.04 0 0-1.67 2.866 1.79 6.09 0 0-3.58 10.51 1.43 18.39 5.02 7.885 11.225 17.915 11.225 17.915l-139.67 139.69s-10.03-6.21-17.912-11.225c-7.882-5.02-18.39-1.43-18.39-1.43-3.226-3.47-6.096-1.8-6.096-1.8-19.944 9.912-29.975 25.44-34.04 32.37-4.062 6.92-.6 9.67-.6 9.67zM487.752 4.914c-22-8-40.33-6.19-51.64 5.13-4.78 4.777-4.78 12.525 0 17.31 4.78 4.774 12.526 4.78 17.307 0 4.02-4.014 13.96-3.806 25.95.563 15.39 5.606 32.93 17.533 48.12 32.723 32.77 32.77 41.6 65.76 33.28 74.08-4.78 4.78-4.78 12.53 0 17.315 2.39 2.388 5.52 3.58 8.65 3.58 3.13 0 6.26-1.192 8.65-3.586 21.49-21.5 7.18-68.22-33.28-108.7-17.89-17.88-38.15-31.53-57.05-38.42z"/><path d="M440.42 74.246c3.63-3.623 25.367.367 49.235 24.235 23.862 23.87 27.864 45.61 24.235 49.24-4.773 4.78-4.773 12.54.006 17.32 2.393 2.39 5.52 3.58 8.654 3.58 3.133 0 6.267-1.19 8.66-3.58 17.264-17.273 7.067-52.54-24.248-83.85-31.304-31.32-66.586-41.51-83.85-24.24-4.78 4.78-4.78 12.53 0 17.317 4.78 4.788 12.522 4.776 17.308 0zM125.35 588.04c10.722 0 19.945-3.22 26.677-9.952 4.78-4.78 4.78-12.528 0-17.313-4.78-4.786-12.528-4.78-17.308 0-8.33 8.33-41.31-.51-74.08-33.28-15.19-15.19-27.12-32.73-32.73-48.122-4.37-11.99-4.59-21.935-.57-25.955 4.78-4.78 4.78-12.527 0-17.313s-12.53-4.78-17.31 0C-1.28 447.42-3.09 465.76 4.91 487.75c6.887 18.898 20.535 39.162 38.42 57.05 27.788 27.79 58.52 43.244 82.017 43.24z"/><path d="M81.17 506.96c13.366 13.36 28.55 23.568 42.754 28.74 7.52 2.74 13.898 3.8 19.284 3.8 11.322 0 18.2-4.694 21.812-8.305 4.773-4.78 4.773-12.534-.006-17.313-4.78-4.773-12.534-4.78-17.313 0-1.28 1.304-6.46 2.068-15.4-1.182-10.76-3.923-23.09-12.325-33.82-23.054-10.73-10.73-19.13-23.06-23.05-33.825-3.25-8.92-2.48-14.1-1.18-15.4 4.78-4.78 4.78-12.52 0-17.31s-12.53-4.78-17.31 0c-5.33 5.33-13.01 17.76-4.51 41.1 5.19 14.21 15.39 29.4 28.75 42.76z"/></svg>
