<?xml version="1.0" standalone="no"?>
<!DOCTYPE svg PUBLIC "-//W3C//DTD SVG 20010904//EN"
 "http://www.w3.org/TR/2001/REC-SVG-20010904/DTD/svg10.dtd">
<svg version="1.0" xmlns="http://www.w3.org/2000/svg"
 width="700.000000pt" height="700.000000pt" viewBox="0 0 700.000000 700.000000"
 preserveAspectRatio="xMidYMid meet">
<metadata>
Created by potrace 1.11, written by Peter Selinger 2001-2013
</metadata>
<g transform="translate(0.000000,700.000000) scale(0.100000,-0.100000)"
fill="#000000" stroke="none">
<path d="M1062 5937 l-1062 -1062 0 -1375 0 -1376 1062 -1062 1062 -1062 1381
0 1380 0 1057 1062 1058 1063 0 1375 0 1375 -1058 1063 -1057 1062 -1380 0
-1380 0 -1063 -1063z m4730 -145 l997 -998 0 -1294 0 -1295 -997 -997 -997
-997 -1295 0 -1295 0 -997 998 -997 997 0 1294 0 1295 997 997 997 997 1295 0
1295 0 997 -997z"/>
<path d="M1357 5643 l-932 -932 0 -128 0 -128 1062 -3 1062 -2 0 -1053 c0
-578 0 -1079 1 -1112 l0 -60 952 0 953 1 3 1112 2 1112 58 0 c31 1 507 2 1057
3 l1000 2 0 128 1 127 -932 933 -933 932 -1211 0 -1211 0 -932 -932z m4118
-123 c464 -464 842 -846 840 -849 -2 -4 -465 -6 -1030 -6 -904 0 -1028 -2
-1034 -15 -4 -8 -6 -507 -6 -1108 1 -617 -3 -1096 -8 -1099 -6 -4 -1256 -7
-1454 -3 l-23 0 -2 1113 -3 1112 -1033 0 c-567 0 -1032 2 -1032 5 0 3 381 386
848 851 l847 845 1123 -1 1124 -2 843 -843z"/>
<path d="M425 3264 l0 -975 932 -932 932 -932 1211 0 1211 0 932 932 932 932
0 973 0 973 -953 3 -952 2 0 -1113 0 -1113 -1165 0 c-641 0 -1166 2 -1166 5
-1 4 -2 503 -3 1111 l-1 1105 -955 3 -955 2 0 -976z m1699 -349 l1 -1110 1372
-2 c1067 -2 1374 0 1380 10 4 6 7 507 8 1112 l0 1100 743 2 743 2 -4 -830 -4
-830 -869 -867 -869 -868 -1105 2 c-608 1 -1114 3 -1125 3 -12 1 -346 326
-889 866 l-870 864 -1 823 c0 453 1 826 2 830 2 4 337 6 745 5 l742 -2 0
-1110z"/>
</g>
</svg>
